
            <svg
              xmlns="http://www.w3.org/2000/svg"
              xmlnsSvgjs="http://svgjs.dev/svgjs"
              xmlnsXlink="http://www.w3.org/1999/xlink"
              viewBox="0 0 640 400"
            >
              <svg
                xmlns="http://www.w3.org/2000/svg"
                xmlnsXlink="http://www.w3.org/1999/xlink"
                width="640"
                height="400"
                data-background-color="#ffffff"
                viewBox="0 0 640 400"
              >
                <path
                  fill="#fff"
                  d="M0 0H640V400H0z"
                  data-fill-palette-color="background"
                  opacity="1"
                ></path>
                <svg
                  width="395.52"
                  height="173.597"
                  transform="translate(122.24 113.201)"
                  viewBox="0 0 395.52 173.597"
                >
                  <svg
                    width="395.52"
                    height="173.597"
                    viewBox="0 0 395.52 173.597"
                  >
                    <svg
                      width="395.52"
                      height="45.754"
                      transform="translate(0 127.843)"
                      viewBox="0 0 395.52 45.754"
                    >
                      <svg
                        width="395.52"
                        height="45.754"
                        viewBox="0 0 395.52 45.754"
                      >
                        <svg
                          width="395.52"
                          height="45.754"
                          viewBox="0 0 395.52 45.754"
                        >
                          <svg
                            width="395.52"
                            height="45.754"
                            data-palette-color="#50a060"
                            viewBox="3.05 -36.25 317.6 36.74"
                          >
                            <path
                              fill="#50a060"
                              d="M20.19-32.5q-5.88 0-9.29 3.92-3.4 3.92-3.4 10.73 0 7.01 3.28 10.83 3.28 3.82 9.36 3.82 3.74 0 8.52-1.34V-.9Q24.95.49 19.51.49 11.62.49 7.34-4.3 3.05-9.08 3.05-17.9q0-5.51 2.06-9.66 2.07-4.15 5.96-6.4 3.9-2.25 9.17-2.25 5.61 0 9.81 2.05l-1.75 3.57q-4.06-1.91-8.11-1.91zm47.24 14.6q0 8.57-4.33 13.48Q58.76.49 51.05.49q-7.89 0-12.17-4.82-4.29-4.83-4.29-13.61 0-8.72 4.3-13.52 4.3-4.79 12.21-4.79 7.69 0 12.01 4.88 4.32 4.88 4.32 13.47zm-28.44 0q0 7.26 3.09 11 3.08 3.75 8.97 3.75 5.93 0 8.96-3.73 3.02-3.74 3.02-11.02 0-7.2-3.01-10.92-3.02-3.72-8.92-3.72-5.94 0-9.02 3.74-3.09 3.75-3.09 10.9zM79.54 0h-4.15v-35.69h4.15V0zm37.66-35.69V0h-4.73L92.96-29.96h-.19q.39 5.28.39 9.67V0h-3.84v-35.69h4.69l19.46 29.83h.19q-.04-.66-.22-4.24-.17-3.57-.12-5.11v-20.48h3.88zm33.79 3.68V0h-4.15v-32.01h-11.31v-3.68h26.76v3.68h-11.3zm28.27 17.17h-7.45V0h-4.15v-35.69h9.79q6.57 0 9.71 2.51 3.13 2.52 3.13 7.57 0 7.08-7.18 9.57L192.81 0h-4.91l-8.64-14.84zm-7.45-17.22v13.65h5.69q4.39 0 6.44-1.74Q186-21.9 186-25.39q0-3.54-2.09-5.1-2.09-1.57-6.7-1.57h-5.4zm46.65 28.35V0h-19.89v-35.69h19.89v3.68h-15.74v11.5h14.79v3.66h-14.79v13.14h15.74zm35.79-31.98V0h-4.73l-19.51-29.96h-.2q.39 5.28.39 9.67V0h-3.83v-35.69h4.69l19.46 29.83h.19q-.05-.66-.22-4.24-.17-3.57-.12-5.11v-20.48h3.88zm38.31 17.5q0 8.84-4.8 13.51Q282.96 0 273.95 0h-9.89v-35.69H275q8.33 0 12.94 4.61 4.62 4.62 4.62 12.89zm-4.4.15q0-6.98-3.5-10.52-3.51-3.54-10.41-3.54h-6.04v28.51h5.06q7.42 0 11.16-3.65 3.73-3.65 3.73-10.8zm32.49 8.54q0 4.71-3.41 7.35-3.42 2.64-9.28 2.64-6.35 0-9.77-1.64v-4q2.2.93 4.79 1.46 2.59.54 5.12.54 4.16 0 6.25-1.57 2.1-1.58 2.1-4.39 0-1.85-.74-3.04-.74-1.18-2.49-2.18-1.75-1-5.31-2.27-4.98-1.78-7.12-4.23-2.13-2.44-2.13-6.37 0-4.12 3.1-6.56 3.1-2.45 8.2-2.45 5.32 0 9.79 1.96l-1.29 3.61q-4.42-1.86-8.6-1.86-3.29 0-5.15 1.42-1.85 1.42-1.85 3.93 0 1.86.68 3.04.68 1.19 2.31 2.17 1.62.99 4.96 2.19 5.62 2 7.73 4.3 2.11 2.29 2.11 5.95z"
                              className="undefined-text-0"
                              data-fill-palette-color="primary"
                              opacity="1"
                            ></path>
                          </svg>
                        </svg>
                      </svg>
                    </svg>
                    <svg
                      width="106.241"
                      height="106.241"
                      transform="translate(144.64)"
                      viewBox="0 0 106.241 106.241"
                    >
                      <svg></svg>
                      <svg
                        width="106.241"
                        height="106.241"
                        viewBox="0 0 106.241 106.241"
                      >
                        <path
                          fill="#50a060"
                          stroke="transparent"
                          d="M0 53.12C0 23.782 23.783 0 53.12 0c29.338 0 53.12 23.783 53.121 53.12 0 29.338-23.783 53.12-53.121 53.121C23.782 106.241 0 82.458 0 53.12zm53.12 48.995c27.059 0 48.994-21.935 48.995-48.995 0-27.059-21.935-48.994-48.995-48.994-27.059 0-48.994 21.935-48.994 48.994s21.935 48.994 48.994 48.995z"
                          data-fill-palette-color="accent"
                        ></path>
                        <svg
                          width="46.505"
                          height="52.004"
                          transform="translate(29.868 27.118)"
                          viewBox="0 0 46.505 52.004"
                        >
                          <svg
                            xmlns="http://www.w3.org/2000/svg"
                            xmlnsXlink="http://www.w3.org/1999/xlink"
                            width="46.505"
                            height="52.004"
                            x="0"
                            y="0"
                            className="icon-a-0"
                            data-fill-palette-color="accent"
                            version="1.1"
                            viewBox="16.831 13.72 64.664 72.311"
                            xmlSpace="preserve"
                          >
                            <path
                              fill="#50a060"
                              d="M18.335 65.82H31.315V86.03H18.335z"
                              data-fill-palette-color="accent"
                            ></path>
                            <path
                              fill="#50a060"
                              d="M35.185 58.57H48.175000000000004V86.03H35.185z"
                              data-fill-palette-color="accent"
                            ></path>
                            <path
                              fill="#50a060"
                              d="M51.655 47.9H64.634V86.03H51.655z"
                              data-fill-palette-color="accent"
                            ></path>
                            <path
                              fill="#50a060"
                              d="M68.506 36.22H81.495V86.031H68.506z"
                              data-fill-palette-color="accent"
                            ></path>
                            <path
                              fill="#50a060"
                              d="M77.506 16.22v8.66a2.5 2.5 0 01-5 0v-2c-24.311 26.58-51.21 35.34-52.42 35.72-.25.08-.5.12-.75.12-1.06 0-2.05-.68-2.39-1.75a2.51 2.51 0 011.63-3.14c.29-.09 27.33-8.93 50.95-35.11h-3.189a2.5 2.5 0 010-5h8.67c.119 0 .229.01.35.03.05 0 .1.01.14.02a2.5 2.5 0 012.009 2.45z"
                              data-fill-palette-color="accent"
                            ></path>
                          </svg>
                        </svg>
                      </svg>
                    </svg>
                  </svg>
                </svg>
              </svg>
            </svg>
