<svg xmlns="http://www.w3.org/2000/svg" xmlns:xlink="http://www.w3.org/1999/xlink" viewBox="0 0 375 247" data-background-color="#ffffff" preserveAspectRatio="xMidYMid meet" height="658" width="1000"><g id="tight-bounds" transform="matrix(1,0,0,1,0.23453185018252043,-0.10000058783052168)"><svg viewBox="0 0 374.5309363740382 247.2" height="247.2" width="374.5309363740382"><g><svg viewBox="0 0 395.52 261.0533189769832" height="247.2" width="374.5309363740382"><g transform="matrix(1,0,0,1,0,193.51956049107497)"><svg viewBox="0 0 395.52 67.53375848590824" height="67.53375848590824" width="395.52"><g><svg viewBox="0 0 395.52 67.53375848590824" height="67.53375848590824" width="395.52"><g><svg viewBox="0 0 395.52 67.53375848590824" height="67.53375848590824" width="395.52"><g transform="matrix(1,0,0,1,0,0)"><svg width="395.52" viewBox="2.450000047683716 -40.95000076293945 240.03001403808594 41.5" height="67.53375848590824" data-palette-color="#528265"><g class="undefined-text-0" data-fill-palette-color="primary" id="text-0"><path d="M13.95 0.55L13.95 0.55Q9.5 0.55 6.98-1.2 4.45-2.95 3.45-5.98 2.45-9 2.45-12.95L2.45-12.95 2.45-27.4Q2.45-31.55 3.45-34.6 4.45-37.65 6.98-39.3 9.5-40.95 13.95-40.95L13.95-40.95Q18.15-40.95 20.53-39.53 22.9-38.1 23.9-35.45 24.9-32.8 24.9-29.3L24.9-29.3 24.9-25.9 17.8-25.9 17.8-29.4Q17.8-31.1 17.63-32.5 17.45-33.9 16.68-34.73 15.9-35.55 14-35.55L14-35.55Q12.1-35.55 11.23-34.68 10.35-33.8 10.1-32.33 9.85-30.85 9.85-29L9.85-29 9.85-11.4Q9.85-9.2 10.2-7.78 10.55-6.35 11.48-5.63 12.4-4.9 14-4.9L14-4.9Q15.85-4.9 16.63-5.78 17.4-6.65 17.6-8.1 17.8-9.55 17.8-11.35L17.8-11.35 17.8-15 24.9-15 24.9-11.75Q24.9-8.15 23.95-5.38 23-2.6 20.63-1.03 18.25 0.55 13.95 0.55ZM41.05 0.55L41.05 0.55Q36.75 0.55 34.2-1.05 31.65-2.65 30.55-5.65 29.45-8.65 29.45-12.75L29.45-12.75 29.45-27.9Q29.45-32 30.55-34.93 31.65-37.85 34.2-39.4 36.75-40.95 41.05-40.95L41.05-40.95Q45.45-40.95 47.97-39.4 50.5-37.85 51.62-34.93 52.75-32 52.75-27.9L52.75-27.9 52.75-12.7Q52.75-8.65 51.62-5.68 50.5-2.7 47.97-1.07 45.45 0.55 41.05 0.55ZM41.05-4.9L41.05-4.9Q42.9-4.9 43.77-5.7 44.65-6.5 44.95-7.9 45.25-9.3 45.25-10.95L45.25-10.95 45.25-29.6Q45.25-31.3 44.95-32.65 44.65-34 43.77-34.77 42.9-35.55 41.05-35.55L41.05-35.55Q39.3-35.55 38.4-34.77 37.5-34 37.2-32.65 36.9-31.3 36.9-29.6L36.9-29.6 36.9-10.95Q36.9-9.3 37.17-7.9 37.45-6.5 38.35-5.7 39.25-4.9 41.05-4.9ZM65.7 0L58.4 0 58.4-40.5 65.7-40.5 65.7 0ZM78.24 0L71.94 0 71.94-40.5 77.09-40.5 86.94-17.4 86.94-40.5 93.04-40.5 93.04 0 88.14 0 78.24-24.2 78.24 0Z" fill="#528265" data-fill-palette-color="primary"/><path d="M107.54 0L100.14 0 100.14-35.05 93.69-35.05 93.69-40.5 113.89-40.5 113.89-35.05 107.54-35.05 107.54 0ZM124.99 0L117.59 0 117.59-40.5 127.29-40.5Q131.39-40.5 134.21-39.53 137.04-38.55 138.51-36.2 139.99-33.85 139.99-29.8L139.99-29.8Q139.99-27.35 139.54-25.4 139.09-23.45 138.01-22.08 136.94-20.7 135.04-19.95L135.04-19.95 140.69 0 133.29 0 128.39-18.55 124.99-18.55 124.99 0ZM124.99-35.45L124.99-23.2 127.29-23.2Q129.44-23.2 130.71-23.83 131.99-24.45 132.54-25.83 133.09-27.2 133.09-29.35L133.09-29.35Q133.09-32.4 131.96-33.93 130.84-35.45 127.69-35.45L127.69-35.45 124.99-35.45ZM162.74 0L145.63 0 145.63-40.5 162.63-40.5 162.63-35.3 153.04-35.3 153.04-23.65 160.59-23.65 160.59-18.5 153.04-18.5 153.04-5.1 162.74-5.1 162.74 0ZM173.33 0L167.03 0 167.03-40.5 172.18-40.5 182.03-17.4 182.03-40.5 188.13-40.5 188.13 0 183.23 0 173.33-24.2 173.33 0ZM204.13 0L194.28 0 194.28-40.5 203.83-40.5Q208.78-40.5 211.56-39.15 214.33-37.8 215.51-35 216.68-32.2 216.68-27.9L216.68-27.9 216.68-13.1Q216.68-8.7 215.51-5.78 214.33-2.85 211.61-1.43 208.88 0 204.13 0L204.13 0ZM201.68-35.25L201.68-5.15 203.93-5.15Q206.48-5.15 207.58-6.05 208.68-6.95 208.93-8.68 209.18-10.4 209.18-12.9L209.18-12.9 209.18-28.4Q209.18-30.85 208.83-32.35 208.48-33.85 207.38-34.55 206.28-35.25 203.83-35.25L203.83-35.25 201.68-35.25ZM232.33 0.55L232.33 0.55Q228.68 0.55 226.23-0.88 223.78-2.3 222.53-5.05 221.28-7.8 221.13-11.8L221.13-11.8 227.48-13.05Q227.58-10.7 228.05-8.9 228.53-7.1 229.5-6.13 230.48-5.15 232.08-5.15L232.08-5.15Q233.88-5.15 234.63-6.23 235.38-7.3 235.38-8.95L235.38-8.95Q235.38-11.6 234.18-13.3 232.98-15 230.98-16.7L230.98-16.7 225.88-21.2Q223.73-23.05 222.45-25.33 221.18-27.6 221.18-30.95L221.18-30.95Q221.18-35.75 223.98-38.35 226.78-40.95 231.63-40.95L231.63-40.95Q234.48-40.95 236.38-40.08 238.28-39.2 239.4-37.65 240.53-36.1 241.08-34.13 241.63-32.15 241.78-29.95L241.78-29.95 235.48-28.85Q235.38-30.75 235.05-32.25 234.73-33.75 233.9-34.6 233.08-35.45 231.48-35.45L231.48-35.45Q229.83-35.45 228.95-34.38 228.08-33.3 228.08-31.7L228.08-31.7Q228.08-29.65 228.93-28.33 229.78-27 231.38-25.6L231.38-25.6 236.43-21.15Q238.93-19.05 240.7-16.23 242.48-13.4 242.48-9.4L242.48-9.4Q242.48-6.5 241.2-4.25 239.93-2 237.65-0.73 235.38 0.55 232.33 0.55Z" fill="#528265" data-fill-palette-color="primary"/></g></svg></g></svg></g></svg></g></svg></g><g transform="matrix(1,0,0,1,116.94331932278178,0)"><svg viewBox="0 0 161.63336135443643 161.63336135443643" height="161.63336135443643" width="161.63336135443643"><g><svg/></g><g id="icon-0"><svg viewBox="0 0 161.63336135443643 161.63336135443643" height="161.63336135443643" width="161.63336135443643"><g><path d="M0 80.817c0-44.634 36.183-80.817 80.817-80.817 44.634 0 80.817 36.183 80.816 80.817 0 44.634-36.183 80.817-80.816 80.816-44.634 0-80.817-36.183-80.817-80.816zM80.817 155.543c41.27 0 74.726-33.456 74.726-74.726 0-41.27-33.456-74.726-74.726-74.727-41.27 0-74.726 33.456-74.727 74.727 0 41.27 33.456 74.726 74.727 74.726z" data-fill-palette-color="accent" fill="#528265" stroke="transparent"/></g><g transform="matrix(1,0,0,1,36.61220024998882,36.61907834533622)"><svg viewBox="0 0 88.4089608544588 88.39520466376399" height="88.39520466376399" width="88.4089608544588"><g><svg xmlns="http://www.w3.org/2000/svg" xmlns:xlink="http://www.w3.org/1999/xlink" version="1.1" x="0" y="0" viewBox="-257 143.01072692871094 76.0010986328125 75.98927307128906" enable-background="new -269 131 100 100" xml:space="preserve" height="88.39520466376399" width="88.4089608544588" class="icon-a-0" data-fill-palette-color="accent" id="a-0"><path d="M-216.3 143.1c-22.2-1.5-40.7 16.1-40.7 37.9 0 1.6 0.1 3.1 0.3 4.6 0.1 0.8 1.1 1.2 1.7 0.6l3.7-3.7c0.2-0.2 0.3-0.5 0.3-0.8 0-0.2 0-0.5 0-0.7 0-18.4 15.6-33.2 34.3-31.9 15.8 1.1 28.5 13.9 29.6 29.6 1.3 18.7-13.5 34.3-31.9 34.3-12.4 0-23.1-7.1-28.4-17.4l12.2-12.2 13.2 13.2c0.4 0.4 1 0.4 1.4 0l18.8-18.8v5.7c0 0.6 0.4 1 1 1h4c0.6 0 1-0.4 1-1v-14.9c0-0.6-0.4-1-1-1h-14.9c-0.6 0-1 0.4-1 1v4c0 0.6 0.4 1 1 1h5.7l-15.2 15.2-13.2-13.2c-0.4-0.4-1-0.4-1.4 0l-18.2 18.2c-0.3 0.3-0.4 0.7-0.2 1.1C-248.8 209-235 219-219 219c21.9 0 39.5-18.5 37.9-40.7C-182.4 159.6-197.6 144.4-216.3 143.1z" fill="#528265" data-fill-palette-color="accent"/></svg></g></svg></g></svg></g></svg></g><g/></svg></g><defs/></svg><rect width="374.5309363740382" height="247.2" fill="none" stroke="none" visibility="hidden"/></g></svg>